<svg height="512" viewBox="0 0 64 64" width="512" xmlns="http://www.w3.org/2000/svg"><g id="security-protech-lock-computer-laptop"><path d="m58.38 61h-52.76a2 2 0 0 1 -1.93-2.53l5.31-19.47h46l5.31 19.47a2 2 0 0 1 -1.93 2.53z" fill="#c6c5ca"/><path d="m58.38 61h-4a2 2 0 0 0 1.93-2.53l-5.31-19.47h4l5.31 19.47a2 2 0 0 1 -1.93 2.53z" fill="#acabb1"/><path d="m53 9a2.006 2.006 0 0 1 2 2v28h-46v-28a2.006 2.006 0 0 1 2-2z" fill="#46f8ff"/><path d="m55 11v28h-4v-28a2.006 2.006 0 0 0 -2-2h4a2.006 2.006 0 0 1 2 2z" fill="#00d7df"/><path d="m40 53 1 4h-18l1-4z" fill="#898890"/><path d="m41 57h-4l-1-4h4z" fill="#787680"/><rect fill="#fee9ab" height="16" rx="2" width="22" x="21" y="15"/><path d="m43 17v12a2.006 2.006 0 0 1 -2 2h-4a2.006 2.006 0 0 0 2-2v-12a2.006 2.006 0 0 0 -2-2h4a2.006 2.006 0 0 1 2 2z" fill="#ffde55"/><path d="m36 11h4v4h-4z" fill="#806749"/><path d="m40 11h-4a4 4 0 0 0 -8 0v4h-4v-4a8.239 8.239 0 0 1 .25-2 8 8 0 0 1 15.51.05 7.832 7.832 0 0 1 .24 1.95z" fill="#a78966"/><path d="m36 11v4h-8v-4a4 4 0 1 1 8 0z" fill="#46f8ff"/><path d="m61.28 58.21-5.28-19.34v-27.87a3.009 3.009 0 0 0 -3-3h-12.53a8.978 8.978 0 0 0 -16.94 0h-12.53a3.009 3.009 0 0 0 -3 3v27.87l-5.28 19.34a3 3 0 0 0 2.9 3.79h52.76a3 3 0 0 0 2.9-3.79zm-36.28-47.21a7 7 0 0 1 13.92-1h-2.02a5 5 0 0 0 -9.9 1v3h-2zm14 1v2h-2v-2zm-4-1v3h-6v-3a3 3 0 0 1 6 0zm6 5a1 1 0 0 1 1 1v12a1 1 0 0 1 -1 1h-18a1 1 0 0 1 -1-1v-12a1 1 0 0 1 1-1zm-31-5a1 1 0 0 1 1-1h12.06a8.262 8.262 0 0 0 -.06 1v3a3.009 3.009 0 0 0 -3 3v12a3.009 3.009 0 0 0 3 3h18a3.009 3.009 0 0 0 3-3v-12a3.009 3.009 0 0 0 -3-3v-3a8.262 8.262 0 0 0 -.06-1h12.06a1 1 0 0 1 1 1v27h-44zm49.18 48.61a.99.99 0 0 1 -.8.39h-52.76a.99.99 0 0 1 -.8-.39 1 1 0 0 1 -.17-.87l5.11-18.74h44.48l5.11 18.74a1 1 0 0 1 -.17.87z"/><path d="m40.97 52.757a1 1 0 0 0 -.97-.757h-16a1 1 0 0 0 -.97.757l-1 4a1 1 0 0 0 .97 1.243h18a1 1 0 0 0 .97-1.243zm-16.689 3.243.5-2h14.438l.5 2z"/><path d="m27 34h10v2h-10z"/><path d="m12 42h4v2h-4z"/><path d="m18 42h4v2h-4z"/><path d="m24 42h4v2h-4z"/><path d="m36 42h4v2h-4z"/><path d="m42 42h4v2h-4z"/><path d="m48 42h4v2h-4z"/><path d="m30 42h4v2h-4z"/><path d="m12 46h4v2h-4z"/><path d="m18 46h4v2h-4z"/><path d="m24 46h4v2h-4z"/><path d="m36 46h4v2h-4z"/><path d="m42 46h4v2h-4z"/><path d="m48 46h4v2h-4z"/><path d="m30 46h4v2h-4z"/><path d="m31 27a1 1 0 0 0 .707-.293l7-7-1.414-1.414-6.293 6.293-3.293-3.293-1.414 1.414 4 4a1 1 0 0 0 .707.293z"/></g></svg>