<svg height="464pt" viewBox="0 0 464 464" width="464pt" xmlns="http://www.w3.org/2000/svg"><path d="m208 104c0 57.4375-46.5625 104-104 104s-104-46.5625-104-104 46.5625-104 104-104 104 46.5625 104 104zm0 0" fill="#ffcd00"/><path d="m464 104c0 57.4375-46.5625 104-104 104s-104-46.5625-104-104 46.5625-104 104-104 104 46.5625 104 104zm0 0" fill="#ab2300"/><path d="m208 360c0 57.4375-46.5625 104-104 104s-104-46.5625-104-104 46.5625-104 104-104 104 46.5625 104 104zm0 0" fill="#00d7df"/><path d="m464 360c0 57.4375-46.5625 104-104 104s-104-46.5625-104-104 46.5625-104 104-104 104 46.5625 104 104zm0 0" fill="#3d9ae2"/><g fill="#f1f2f2"><path d="m104 112h-48c-4.417969 0-8-3.582031-8-8s3.582031-8 8-8h40v-56c0-4.417969 3.582031-8 8-8s8 3.582031 8 8v64c0 4.417969-3.582031 8-8 8zm0 0"/><path d="m392 144c-2.121094 0-4.15625-.84375-5.65625-2.34375l-32-32c-1.5-1.5-2.34375-3.535156-2.34375-5.65625v-64c0-4.417969 3.582031-8 8-8s8 3.582031 8 8v60.6875l29.65625 29.65625c2.285156 2.289062 2.972656 5.730469 1.734375 8.71875s-4.15625 4.9375-7.390625 4.9375zm0 0"/><path d="m104 368c-2.121094 0-4.15625-.84375-5.65625-2.34375l-33.9375-33.945312c-2.078125-2.007813-2.910156-4.980469-2.179688-7.777344.730469-2.796875 2.917969-4.984375 5.714844-5.714844 2.796875-.734375 5.769532.101562 7.777344 2.179688l28.28125 28.289062 39.601562-39.597656c3.136719-3.035156 8.128907-2.992188 11.214844.09375 3.085938 3.085937 3.128906 8.078125.09375 11.214844l-45.253906 45.257812c-1.5 1.5-3.535156 2.34375-5.65625 2.34375zm0 0"/><path d="m324 412c-3.234375 0-6.152344-1.949219-7.390625-4.9375s-.550781-6.429688 1.734375-8.71875l33.65625-33.65625v-68.6875c0-4.417969 3.582031-8 8-8s8 3.582031 8 8v72c0 2.121094-.84375 4.15625-2.34375 5.65625l-36 36c-1.5 1.5-3.535156 2.34375-5.65625 2.34375zm0 0"/></g></svg>